PathFileType	4	(X/Y/Z)	c:/Users/goper/Files/vsCode/490R/osim_files/C05/C05_SSWS_03.trc
DataRate	CameraRate	NumFrames	NumMarkers	Units                	OrigDataRate	OrigDataStartFrame	OrigNumFrames
250.00	250.00	8	36	mm	250.0	1233	2465
                Frame#	Time	LPSIS			LASIS			LTH1			LTH2			LTH3			LTH4			LLFE			LMFE			LSH1			LSH2			LSH3			LSH4			LLMAL			LMMAL			LCAL			LMTP5			LTOE			LMTP1			RPSIS			RASIS			RTH1			RTH2			RTH3			RTH4			RLFE			RMFE			RSH1			RSH2			RSH3			RSH4			RLMAL			RMMAL			RCAL			RMTP1			RTOE			RMTP5		
		X1	Y1	Z1	X2	Y2	Z2	X3	Y3	Z3	X4	Y4	Z4	X5	Y5	Z5	X6	Y6	Z6	X7	Y7	Z7	X8	Y8	Z8	X9	Y9	Z9	X10	Y10	Z10	X11	Y11	Z11	X12	Y12	Z12	X13	Y13	Z13	X14	Y14	Z14	X15	Y15	Z15	X16	Y16	Z16	X17	Y17	Z17	X18	Y18	Z18	X19	Y19	Z19	X20	Y20	Z20	X21	Y21	Z21	X22	Y22	Z22	X23	Y23	Z23	X24	Y24	Z24	X25	Y25	Z25	X26	Y26	Z26	X27	Y27	Z27	X28	Y28	Z28	X29	Y29	Z29	X30	Y30	Z30	X31	Y31	Z31	X32	Y32	Z32	X33	Y33	Z33	X34	Y34	Z34	X35	Y35	Z35	X36	Y36	Z36

1233	4.92800	742.88098	1028.03772	301.52405	544.48260	998.57147	352.68024	562.47504	676.15491	404.02084	531.59503	621.39508	397.95441	492.56122	707.34552	410.33826	471.12677	649.14441	402.80234	442.84506	548.21667	386.08456	442.84866	533.96747	265.13843	463.52908	355.53815	394.34604	443.07751	316.81778	391.99506	405.37363	378.25705	410.30469	393.12473	335.12186	402.55267	326.62939	114.35118	372.32388	297.95566	138.96072	292.08289	360.10077	61.52272	313.32208	179.60048	113.64291	416.22394	153.80722	158.17943	357.78354	150.88780	137.76750	310.70786	739.77130	1042.56274	194.06888	547.41882	1005.51703	121.50530	709.10803	672.60797	76.37796	704.06519	610.36005	92.57615	632.88184	671.84045	85.98680	638.67725	610.14105	99.26062	0.00000	0.00000	0.00000	682.27570	517.41968	114.74315	801.76141	383.31662	100.48844	810.42578	336.43732	107.95110	743.36743	364.42392	110.22638	760.72040	322.24603	116.13018	864.80463	109.04298	159.80531	846.26355	115.63510	245.39799	936.80841	87.51313	204.04010	726.47223	32.52831	235.81607	701.25275	52.93560	189.79617	753.30994	31.81066	124.45667
1234	4.93200	738.07141	1027.22888	301.99680	539.11273	997.66156	352.49527	558.31464	675.36017	404.71719	527.94202	620.71051	399.06207	488.29739	706.29663	410.98706	467.10370	648.14355	403.61026	439.07684	547.04736	387.07159	440.25073	532.63763	265.85852	457.56442	353.97925	394.70160	436.30563	315.45670	392.02960	399.62167	377.45065	410.59320	387.01923	334.74249	402.82953	316.96988	114.85750	371.38504	289.02792	140.31688	291.18777	349.93918	61.87106	312.30396	169.62207	115.85447	414.47763	144.61224	161.16750	356.24481	141.85287	141.20264	309.04370	735.21521	1041.89636	194.61369	543.20300	1004.83765	121.46059	707.03894	672.96808	75.96939	701.61328	610.23511	92.52489	630.24323	671.42303	85.75780	635.81158	609.77472	99.33532	0.00000	0.00000	0.00000	680.23267	517.11078	114.60120	800.40436	383.59622	100.48368	809.29376	336.77533	107.88026	742.10449	364.39822	110.08585	758.89288	321.44244	116.79488	864.47827	109.41644	159.74504	845.90369	116.00681	245.37939	936.56793	88.00669	203.97749	726.42627	32.55484	235.75908	701.20337	52.92566	189.74208	753.27191	31.80219	124.43545
1235	4.93600	733.22089	1026.39929	302.46811	534.14777	996.78699	352.52246	553.90979	674.58978	405.50677	523.78522	619.82990	399.80939	483.84973	705.38477	411.73633	462.74857	647.00854	404.43503	435.20590	545.79260	388.02490	437.53641	531.33942	266.51495	451.82095	352.51892	395.06851	430.08185	314.26666	392.19989	394.19159	376.64374	410.93997	381.90482	334.85617	404.36392	307.66864	115.19827	370.51685	280.52896	141.59978	290.34814	340.26080	62.16437	311.27731	159.95805	117.69235	412.69135	136.05107	163.79329	354.67148	133.30295	144.38371	307.38007	730.68286	1041.15271	195.12466	538.83276	1004.05054	121.47579	704.65485	671.84802	76.87518	699.03442	610.05133	92.52271	627.33398	670.85266	85.69172	633.70288	609.26105	98.97832	0.00000	0.00000	0.00000	678.12158	516.81519	114.46987	799.00977	383.87149	100.49583	808.06403	337.08395	107.89433	740.67303	364.30429	110.00383	758.33630	322.26239	115.88934	864.16785	109.81696	159.70131	845.52289	116.42145	245.29610	936.32727	88.69461	203.98154	726.35913	32.62077	235.70056	701.13458	52.89885	189.68332	753.22522	31.79151	124.40182
1236	4.94000	728.38293	1025.57886	303.04343	529.55249	995.88727	352.71640	549.25824	673.82422	406.38678	519.46234	618.87561	400.55759	479.10101	704.51831	412.28598	458.08722	646.12354	405.20029	431.21609	544.52417	388.85757	435.06775	530.77203	265.25012	446.35126	351.14658	395.33826	424.02594	313.14249	392.26807	388.81845	375.95163	411.06937	375.28061	333.55832	403.17252	298.75220	115.40231	369.75598	272.48495	142.82968	289.58441	331.26297	62.46073	310.31134	150.94220	119.33521	411.10364	127.94598	166.11621	353.14404	125.24740	147.27435	305.72546	726.10724	1040.40552	195.66782	536.56647	1003.26526	120.54900	701.80103	671.70087	76.92403	696.50476	609.86273	92.55887	624.57513	670.44318	85.53207	631.09485	608.73596	98.87427	0.00000	0.00000	0.00000	675.78406	516.45575	114.10487	797.43127	384.09528	100.50204	806.72211	337.32608	107.89980	739.25110	364.27499	109.89304	756.43365	321.46603	116.61975	863.88367	110.26981	159.68340	845.16516	116.78397	245.24446	936.06555	89.39879	204.00117	726.28534	32.64894	235.66417	701.03375	52.89852	189.66333	753.16675	31.79981	124.37447
1237	4.94400	723.56647	1024.75500	303.50427	524.55548	995.02728	352.77844	544.46930	673.12317	407.34528	515.05896	617.95654	401.22192	474.23672	703.77917	412.80060	453.36230	645.40387	405.88513	427.31079	543.28278	389.69562	431.97189	529.71515	265.86557	440.96716	349.77771	395.44931	418.23419	312.02322	392.21725	383.80054	375.14618	411.30035	369.66269	332.87125	403.14038	290.40369	115.55645	369.06128	265.03705	143.91031	288.94073	322.70151	62.72050	309.46182	141.84595	120.40295	409.11230	120.23420	168.15068	351.71255	117.69569	149.83820	304.08829	721.48047	1039.66992	196.25212	532.02728	1002.51727	120.54613	698.87445	671.53522	76.99841	693.81207	609.64758	92.62350	621.66779	669.86877	85.41486	629.11560	608.41541	98.17769	0.00000	0.00000	0.00000	673.68488	516.11932	114.22431	796.01160	384.45590	100.55756	805.38885	337.59964	107.88514	737.79242	364.23279	109.79907	755.89020	322.38257	115.69759	863.59393	110.73376	159.65825	844.74274	117.17938	245.20929	935.81232	90.03643	203.94775	726.27234	32.71765	235.61234	700.93280	52.89062	189.58118	753.13562	31.80414	124.34469
1238	4.94800	718.69116	1023.93005	304.11362	519.29370	994.20117	352.66785	539.42188	672.35211	408.35501	509.11151	617.45026	402.82681	469.13547	703.07965	413.31619	448.24570	644.70844	406.31381	423.28763	542.03955	390.27371	429.21359	528.55225	266.44403	435.84448	348.44803	395.45114	412.67599	310.89948	392.09567	378.81171	374.27292	411.43793	364.25195	332.09415	403.02463	282.42892	115.48555	368.44946	257.98428	144.88680	288.38821	314.71576	62.79820	308.76358	133.56662	121.29955	407.33755	112.98645	169.84695	350.27332	110.65720	152.03891	302.47711	716.86536	1038.88501	196.80095	527.31885	1001.73364	120.77590	695.91217	671.35626	77.07500	691.08417	609.43207	92.66212	618.62781	669.22070	85.35193	626.37238	607.90790	98.15887	0.00000	0.00000	0.00000	671.35864	515.71649	114.20945	794.13562	384.52927	100.58385	803.92590	337.84476	107.95291	736.18573	364.13364	109.80129	753.69183	321.45276	116.56120	863.28033	111.20469	159.60379	844.47516	117.64584	245.19795	935.49683	90.67132	203.81938	726.25415	32.73704	235.59521	700.86774	52.85959	189.57198	753.10260	31.81366	124.32950
1239	4.95200	713.93231	1023.11810	304.67627	514.18066	993.33997	352.78183	534.30664	671.64532	409.34204	504.10809	616.79053	403.74661	463.88364	702.39178	413.80942	443.16675	644.08398	406.71280	419.14032	540.76050	390.76468	425.54309	527.63684	266.97269	430.73019	347.13055	395.28775	407.50046	309.87524	391.91208	373.97595	373.39154	411.43732	360.10022	332.06192	404.42203	275.10156	115.29234	367.98416	251.57930	145.56706	287.90244	307.25366	62.67638	308.26642	126.09964	122.11449	405.93536	106.38190	171.29414	348.93893	104.14133	153.84009	300.90027	712.28510	1038.12109	197.39362	522.75934	1000.95490	120.92169	692.84271	671.05347	77.22716	688.27911	609.16797	92.75404	615.62024	668.65662	85.32601	623.61829	607.33429	98.06899	0.00000	0.00000	0.00000	668.97266	515.36090	114.20192	792.36359	384.74518	100.67612	802.36462	338.11581	108.01151	734.56970	364.03101	109.73136	752.91675	322.24826	115.77895	862.89014	111.63493	159.54059	844.15588	118.06211	245.14059	935.26282	91.30360	203.71663	726.24249	32.78907	235.56689	700.81189	52.84134	189.51494	753.07446	31.83132	124.31019
1240	4.95600	709.09790	1022.30511	305.25964	509.30661	992.48651	352.99100	528.93365	670.93396	410.26813	498.80399	616.09631	404.28781	458.59760	701.76367	414.24551	437.90253	643.48779	406.95273	414.97360	539.71484	391.14990	421.54163	526.86298	267.38098	425.83725	345.92160	395.00549	402.37231	308.85706	391.62689	369.39447	372.55130	411.37228	355.19205	331.25870	404.22046	268.24124	114.94421	367.61026	245.60464	145.90385	287.45856	300.54352	62.38567	307.86188	118.60915	122.38956	404.11078	100.21603	172.33478	347.67218	98.15752	155.20543	299.36636	707.63635	1037.35291	198.01157	518.28699	1000.18964	121.15023	689.65619	670.75128	77.32690	685.40149	608.88232	92.87204	612.48993	668.04419	85.39414	620.68854	606.74493	98.04642	0.00000	0.00000	0.00000	666.38696	514.92181	114.32012	790.50690	384.95187	100.77129	800.77350	338.36304	108.09827	732.83337	363.93677	109.77805	751.60297	322.35315	115.67979	862.53442	112.06841	159.43390	843.42999	118.26884	244.76596	935.02515	92.13067	203.62357	726.21423	32.85870	235.54378	700.74719	52.82251	189.47452	753.03308	31.82561	124.30853
